<svg width="133" height="34" viewBox="0 0 133 34" fill="none" xmlns="http://www.w3.org/2000/svg">
<g filter="url(#filter0_d)">
<path d="M11.3242 12.25H9.37891V19H5.26562V1.9375H9.37891V8.53516H10.9609L14.2422 1.9375H19.2227L14.5352 9.8125L19.8086 19H14.9453L11.3242 12.25ZM28.0234 6.32031H31.9844V19H28.0234V11.6172L24.543 19H20.5703V6.32031H24.543V13.6797L28.0234 6.32031ZM45.3906 19H41.4297V14.3008H37.9727V19H34.0234V6.32031H37.9727V11.2656H41.4297V6.32031H45.3906V19ZM47.0547 12.543C47.0547 11.2773 47.3008 10.1523 47.793 9.16797C48.2852 8.17578 48.9922 7.41406 49.9141 6.88281C50.8359 6.35156 51.918 6.08594 53.1602 6.08594C55.0586 6.08594 56.5547 6.67578 57.6484 7.85547C58.7422 9.02734 59.2891 10.625 59.2891 12.6484V12.7891C59.2891 14.7656 58.7383 16.3359 57.6367 17.5C56.543 18.6562 55.0586 19.2344 53.1836 19.2344C51.3789 19.2344 49.9297 18.6953 48.8359 17.6172C47.7422 16.5312 47.1523 15.0625 47.0664 13.2109L47.0547 12.543ZM51.0039 12.7891C51.0039 13.9609 51.1875 14.8203 51.5547 15.3672C51.9219 15.9141 52.4648 16.1875 53.1836 16.1875C54.5898 16.1875 55.3086 15.1055 55.3398 12.9414V12.543C55.3398 10.2695 54.6133 9.13281 53.1602 9.13281C51.8398 9.13281 51.125 10.1133 51.0156 12.0742L51.0039 12.7891ZM75.543 19H71.4297V5.11328H65.3008V19H61.1875V1.9375H75.543V19ZM82.9961 13.4688L85.1055 6.32031H89.3359L84.168 21.1211L83.9453 21.6602C83.2109 23.3008 81.9141 24.1211 80.0547 24.1211C79.5391 24.1211 78.9961 24.043 78.4258 23.8867V21.0625H78.9414C79.4961 21.0625 79.918 20.9805 80.207 20.8164C80.5039 20.6602 80.7227 20.375 80.8633 19.9609L81.1797 19.1172L76.7734 6.32031H80.9922L82.9961 13.4688ZM101.207 6.32031V19H97.2578V9.36719H94.8906L94.6797 13.2461C94.5312 15.168 94.0977 16.6055 93.3789 17.5586C92.6602 18.5117 91.5938 18.9922 90.1797 19H88.9375L88.8906 15.9766L89.3008 15.9297C89.8242 15.8672 90.2109 15.5195 90.4609 14.8867C90.7188 14.2461 90.8828 13.2812 90.9531 11.9922L91.1992 6.32031H101.207ZM107.594 9.80078H109.621C110.793 9.80078 111.824 9.99219 112.715 10.375C113.605 10.7578 114.285 11.3008 114.754 12.0039C115.223 12.707 115.457 13.5234 115.457 14.4531C115.457 15.8203 114.926 16.9219 113.863 17.7578C112.809 18.5859 111.367 19 109.539 19H103.621V6.32031H107.594V9.80078ZM107.594 12.8359V15.9766H109.598C110.199 15.9766 110.668 15.8398 111.004 15.5664C111.348 15.2852 111.52 14.9062 111.52 14.4297C111.52 13.9609 111.367 13.5781 111.062 13.2812C110.758 12.9844 110.27 12.8359 109.598 12.8359H107.594ZM122.289 16.1875C122.844 16.1875 123.273 16.0391 123.578 15.7422C123.883 15.4375 124.031 15.0156 124.023 14.4766H127.727C127.727 15.8672 127.227 17.0078 126.227 17.8984C125.234 18.7891 123.953 19.2344 122.383 19.2344C120.539 19.2344 119.086 18.6562 118.023 17.5C116.961 16.3438 116.43 14.7422 116.43 12.6953V12.5312C116.43 11.25 116.664 10.1211 117.133 9.14453C117.609 8.16016 118.293 7.40625 119.184 6.88281C120.074 6.35156 121.129 6.08594 122.348 6.08594C123.996 6.08594 125.305 6.54297 126.273 7.45703C127.242 8.37109 127.727 9.60938 127.727 11.1719H124.023C124.023 10.5156 123.863 10.0117 123.543 9.66016C123.223 9.30859 122.793 9.13281 122.254 9.13281C121.23 9.13281 120.633 9.78516 120.461 11.0898C120.406 11.5039 120.379 12.0742 120.379 12.8008C120.379 14.0742 120.531 14.957 120.836 15.4492C121.141 15.9414 121.625 16.1875 122.289 16.1875Z" fill="white"/>
<path d="M11.3242 12.25L12.2054 11.7773L11.9226 11.25H11.3242V12.25ZM9.37891 12.25V11.25H8.37891V12.25H9.37891ZM9.37891 19V20H10.3789V19H9.37891ZM5.26562 19H4.26562V20H5.26562V19ZM5.26562 1.9375V0.9375H4.26562V1.9375H5.26562ZM9.37891 1.9375H10.3789V0.9375H9.37891V1.9375ZM9.37891 8.53516H8.37891V9.53516H9.37891V8.53516ZM10.9609 8.53516V9.53516H11.5804L11.8563 8.98046L10.9609 8.53516ZM14.2422 1.9375V0.9375H13.6227L13.3468 1.4922L14.2422 1.9375ZM19.2227 1.9375L20.0819 2.44898L20.9816 0.9375H19.2227V1.9375ZM14.5352 9.8125L13.6759 9.30102L13.3769 9.80332L13.6679 10.3103L14.5352 9.8125ZM19.8086 19V20H21.5356L20.6759 18.5022L19.8086 19ZM14.9453 19L14.0641 19.4727L14.347 20H14.9453V19ZM11.3242 11.25H9.37891V13.25H11.3242V11.25ZM8.37891 12.25V19H10.3789V12.25H8.37891ZM9.37891 18H5.26562V20H9.37891V18ZM6.26562 19V1.9375H4.26562V19H6.26562ZM5.26562 2.9375H9.37891V0.9375H5.26562V2.9375ZM8.37891 1.9375V8.53516H10.3789V1.9375H8.37891ZM9.37891 9.53516H10.9609V7.53516H9.37891V9.53516ZM11.8563 8.98046L15.1376 2.3828L13.3468 1.4922L10.0656 8.08985L11.8563 8.98046ZM14.2422 2.9375H19.2227V0.9375H14.2422V2.9375ZM18.3634 1.42602L13.6759 9.30102L15.3944 10.324L20.0819 2.44898L18.3634 1.42602ZM13.6679 10.3103L18.9413 19.4978L20.6759 18.5022L15.4024 9.31469L13.6679 10.3103ZM19.8086 18H14.9453V20H19.8086V18ZM15.8265 18.5273L12.2054 11.7773L10.443 12.7227L14.0641 19.4727L15.8265 18.5273ZM28.0234 6.32031V5.32031H27.3902L27.1194 5.89278L28.0234 6.32031ZM31.9844 6.32031H32.9844V5.32031H31.9844V6.32031ZM31.9844 19V20H32.9844V19H31.9844ZM28.0234 19H27.0234V20H28.0234V19ZM28.0234 11.6172H29.0234L27.1189 11.1908L28.0234 11.6172ZM24.543 19V20H25.1771L25.4475 19.4264L24.543 19ZM20.5703 19H19.5703V20H20.5703V19ZM20.5703 6.32031V5.32031H19.5703V6.32031H20.5703ZM24.543 6.32031H25.543V5.32031H24.543V6.32031ZM24.543 13.6797H23.543L25.447 14.1072L24.543 13.6797ZM28.0234 7.32031H31.9844V5.32031H28.0234V7.32031ZM30.9844 6.32031V19H32.9844V6.32031H30.9844ZM31.9844 18H28.0234V20H31.9844V18ZM29.0234 19V11.6172H27.0234V19H29.0234ZM27.1189 11.1908L23.6384 18.5736L25.4475 19.4264L28.928 12.0436L27.1189 11.1908ZM24.543 18H20.5703V20H24.543V18ZM21.5703 19V6.32031H19.5703V19H21.5703ZM20.5703 7.32031H24.543V5.32031H20.5703V7.32031ZM23.543 6.32031V13.6797H25.543V6.32031H23.543ZM25.447 14.1072L28.9274 6.74784L27.1194 5.89278L23.639 13.2522L25.447 14.1072ZM45.3906 19V20H46.3906V19H45.3906ZM41.4297 19H40.4297V20H41.4297V19ZM41.4297 14.3008H42.4297V13.3008H41.4297V14.3008ZM37.9727 14.3008V13.3008H36.9727V14.3008H37.9727ZM37.9727 19V20H38.9727V19H37.9727ZM34.0234 19H33.0234V20H34.0234V19ZM34.0234 6.32031V5.32031H33.0234V6.32031H34.0234ZM37.9727 6.32031H38.9727V5.32031H37.9727V6.32031ZM37.9727 11.2656H36.9727V12.2656H37.9727V11.2656ZM41.4297 11.2656V12.2656H42.4297V11.2656H41.4297ZM41.4297 6.32031V5.32031H40.4297V6.32031H41.4297ZM45.3906 6.32031H46.3906V5.32031H45.3906V6.32031ZM45.3906 18H41.4297V20H45.3906V18ZM42.4297 19V14.3008H40.4297V19H42.4297ZM41.4297 13.3008H37.9727V15.3008H41.4297V13.3008ZM36.9727 14.3008V19H38.9727V14.3008H36.9727ZM37.9727 18H34.0234V20H37.9727V18ZM35.0234 19V6.32031H33.0234V19H35.0234ZM34.0234 7.32031H37.9727V5.32031H34.0234V7.32031ZM36.9727 6.32031V11.2656H38.9727V6.32031H36.9727ZM37.9727 12.2656H41.4297V10.2656H37.9727V12.2656ZM42.4297 11.2656V6.32031H40.4297V11.2656H42.4297ZM41.4297 7.32031H45.3906V5.32031H41.4297V7.32031ZM44.3906 6.32031V19H46.3906V6.32031H44.3906ZM47.0547 12.543H46.0547V12.5517L46.0548 12.5605L47.0547 12.543ZM47.793 9.16797L48.6874 9.61518L48.6888 9.61236L47.793 9.16797ZM57.6484 7.85547L56.9151 8.53536L56.9174 8.53779L57.6484 7.85547ZM57.6367 17.5L56.9104 16.8127L56.9103 16.8128L57.6367 17.5ZM48.8359 17.6172L48.1314 18.3268L48.1339 18.3294L48.8359 17.6172ZM47.0664 13.2109L46.0666 13.2285L46.0668 13.2429L46.0675 13.2573L47.0664 13.2109ZM51.0039 12.7891L50.004 12.7727L50.0039 12.7809V12.7891H51.0039ZM55.3398 12.9414L56.3397 12.9558L56.3398 12.9486V12.9414H55.3398ZM51.0156 12.0742L50.0172 12.0185L50.0161 12.0382L50.0158 12.0578L51.0156 12.0742ZM48.0547 12.543C48.0547 11.4092 48.2744 10.4412 48.6874 9.61518L46.8985 8.72076C46.3272 9.86346 46.0547 11.1454 46.0547 12.543H48.0547ZM48.6888 9.61236C49.0971 8.78923 49.6696 8.17782 50.4134 7.74924L49.4148 6.01638C48.3147 6.6503 47.4732 7.56233 46.8971 8.72358L48.6888 9.61236ZM50.4134 7.74924C51.1596 7.31919 52.0636 7.08594 53.1602 7.08594V5.08594C51.7723 5.08594 50.5123 5.38393 49.4148 6.01638L50.4134 7.74924ZM53.1602 7.08594C54.8349 7.08594 56.0448 7.59664 56.9151 8.53536L58.3817 7.17558C57.0646 5.75492 55.2823 5.08594 53.1602 5.08594V7.08594ZM56.9174 8.53779C57.7963 9.47943 58.2891 10.8091 58.2891 12.6484H60.2891C60.2891 10.4409 59.6881 8.57526 58.3795 7.17315L56.9174 8.53779ZM58.2891 12.6484V12.7891H60.2891V12.6484H58.2891ZM58.2891 12.7891C58.2891 14.5727 57.7974 15.8754 56.9104 16.8127L58.3631 18.1873C59.6792 16.7965 60.2891 14.9585 60.2891 12.7891H58.2891ZM56.9103 16.8128C56.039 17.7338 54.8369 18.2344 53.1836 18.2344V20.2344C55.2803 20.2344 57.0469 19.5787 58.3632 18.1872L56.9103 16.8128ZM53.1836 18.2344C51.5922 18.2344 50.4121 17.7667 49.5379 16.905L48.1339 18.3294C49.4473 19.6239 51.1656 20.2344 53.1836 20.2344V18.2344ZM49.5405 16.9076C48.6591 16.0325 48.1421 14.8195 48.0653 13.1646L46.0675 13.2573C46.1625 15.3055 46.8252 17.03 48.1314 18.3268L49.5405 16.9076ZM48.0663 13.1934L48.0545 12.5254L46.0548 12.5605L46.0666 13.2285L48.0663 13.1934ZM50.0039 12.7891C50.0039 14.0243 50.1898 15.1282 50.7245 15.9246L52.3849 14.8098C52.1852 14.5124 52.0039 13.8976 52.0039 12.7891H50.0039ZM50.7245 15.9246C51.2965 16.7766 52.1675 17.1875 53.1836 17.1875V15.1875C52.7622 15.1875 52.5472 15.0515 52.3849 14.8098L50.7245 15.9246ZM53.1836 17.1875C54.1889 17.1875 55.0482 16.7756 55.6103 15.9293C56.1252 15.1542 56.323 14.1153 56.3397 12.9558L54.3399 12.927C54.3254 13.9316 54.1482 14.5158 53.9444 14.8227C53.7878 15.0584 53.5846 15.1875 53.1836 15.1875V17.1875ZM56.3398 12.9414V12.543H54.3398V12.9414H56.3398ZM56.3398 12.543C56.3398 11.3319 56.1521 10.2519 55.6375 9.44679C55.0741 8.56539 54.1964 8.13281 53.1602 8.13281V10.1328C53.577 10.1328 53.7891 10.2686 53.9523 10.5239C54.1643 10.8555 54.3398 11.4806 54.3398 12.543H56.3398ZM53.1602 8.13281C52.2132 8.13281 51.3899 8.50524 50.8257 9.27904C50.3045 9.99397 50.0766 10.9536 50.0172 12.0185L52.0141 12.1299C52.064 11.2339 52.2482 10.7228 52.4418 10.4573C52.5925 10.2506 52.7868 10.1328 53.1602 10.1328V8.13281ZM50.0158 12.0578L50.004 12.7727L52.0038 12.8055L52.0155 12.0906L50.0158 12.0578ZM75.543 19V20H76.543V19H75.543ZM71.4297 19H70.4297V20H71.4297V19ZM71.4297 5.11328H72.4297V4.11328H71.4297V5.11328ZM65.3008 5.11328V4.11328H64.3008V5.11328H65.3008ZM65.3008 19V20H66.3008V19H65.3008ZM61.1875 19H60.1875V20H61.1875V19ZM61.1875 1.9375V0.9375H60.1875V1.9375H61.1875ZM75.543 1.9375H76.543V0.9375H75.543V1.9375ZM75.543 18H71.4297V20H75.543V18ZM72.4297 19V5.11328H70.4297V19H72.4297ZM71.4297 4.11328H65.3008V6.11328H71.4297V4.11328ZM64.3008 5.11328V19H66.3008V5.11328H64.3008ZM65.3008 18H61.1875V20H65.3008V18ZM62.1875 19V1.9375H60.1875V19H62.1875ZM61.1875 2.9375H75.543V0.9375H61.1875V2.9375ZM74.543 1.9375V19H76.543V1.9375H74.543ZM82.9961 13.4688L82.0332 13.7387L82.9715 17.0856L83.9552 13.7518L82.9961 13.4688ZM85.1055 6.32031V5.32031H84.3579L84.1464 6.0373L85.1055 6.32031ZM89.3359 6.32031L90.28 6.64996L90.7443 5.32031H89.3359V6.32031ZM84.168 21.1211L85.0922 21.5029L85.1029 21.4771L85.1121 21.4507L84.168 21.1211ZM83.9453 21.6602L84.858 22.0687L84.864 22.0554L84.8696 22.0419L83.9453 21.6602ZM78.4258 23.8867H77.4258V24.6496L78.1615 24.8512L78.4258 23.8867ZM78.4258 21.0625V20.0625H77.4258V21.0625H78.4258ZM80.207 20.8164L79.7413 19.9315L79.7272 19.9389L79.7134 19.9467L80.207 20.8164ZM80.8633 19.9609L79.927 19.6098L79.9214 19.6245L79.9164 19.6394L80.8633 19.9609ZM81.1797 19.1172L82.116 19.4683L82.2423 19.1316L82.1252 18.7916L81.1797 19.1172ZM76.7734 6.32031V5.32031H75.3715L75.8279 6.64588L76.7734 6.32031ZM80.9922 6.32031L81.9551 6.05039L81.7504 5.32031H80.9922V6.32031ZM83.9552 13.7518L86.0646 6.60333L84.1464 6.0373L82.037 13.1857L83.9552 13.7518ZM85.1055 7.32031H89.3359V5.32031H85.1055V7.32031ZM88.3918 5.99066L83.2239 20.7914L85.1121 21.4507L90.28 6.64996L88.3918 5.99066ZM83.2437 20.7393L83.0211 21.2784L84.8696 22.0419L85.0922 21.5029L83.2437 20.7393ZM83.0326 21.2516C82.7317 21.9238 82.3426 22.3728 81.8873 22.6607C81.4298 22.9501 80.8354 23.1211 80.0547 23.1211V25.1211C81.1333 25.1211 82.1171 24.8819 82.9564 24.351C83.798 23.8187 84.4246 23.0371 84.858 22.0687L83.0326 21.2516ZM80.0547 23.1211C79.6403 23.1211 79.1866 23.0583 78.69 22.9223L78.1615 24.8512C78.8056 25.0276 79.4378 25.1211 80.0547 25.1211V23.1211ZM79.4258 23.8867V21.0625H77.4258V23.8867H79.4258ZM78.4258 22.0625H78.9414V20.0625H78.4258V22.0625ZM78.9414 22.0625C79.5667 22.0625 80.1918 21.9749 80.7006 21.6861L79.7134 19.9467C79.6441 19.9861 79.4255 20.0625 78.9414 20.0625V22.0625ZM80.6728 21.7013C81.2585 21.3931 81.613 20.863 81.8102 20.2825L79.9164 19.6394C79.8323 19.887 79.7493 19.9273 79.7413 19.9315L80.6728 21.7013ZM81.7996 20.3121L82.116 19.4683L80.2434 18.7661L79.927 19.6098L81.7996 20.3121ZM82.1252 18.7916L77.719 5.99475L75.8279 6.64588L80.2342 19.4428L82.1252 18.7916ZM76.7734 7.32031H80.9922V5.32031H76.7734V7.32031ZM80.0293 6.59024L82.0332 13.7387L83.959 13.1988L81.9551 6.05039L80.0293 6.59024ZM101.207 6.32031H102.207V5.32031H101.207V6.32031ZM101.207 19V20H102.207V19H101.207ZM97.2578 19H96.2578V20H97.2578V19ZM97.2578 9.36719H98.2578V8.36719H97.2578V9.36719ZM94.8906 9.36719V8.36719H93.9435L93.8921 9.31289L94.8906 9.36719ZM94.6797 13.2461L95.6767 13.3231L95.6776 13.3118L95.6782 13.3004L94.6797 13.2461ZM90.1797 19V20L90.1852 20L90.1797 19ZM88.9375 19L87.9376 19.0155L87.9529 20H88.9375V19ZM88.8906 15.9766L88.7771 14.983L87.8767 15.0859L87.8907 15.9921L88.8906 15.9766ZM89.3008 15.9297L89.4143 16.9232L89.4193 16.9226L89.3008 15.9297ZM90.4609 14.8867L89.5332 14.5134L89.5309 14.5193L90.4609 14.8867ZM90.9531 11.9922L91.9517 12.0467L91.9522 12.0355L90.9531 11.9922ZM91.1992 6.32031V5.32031H90.2417L90.2002 6.27696L91.1992 6.32031ZM100.207 6.32031V19H102.207V6.32031H100.207ZM101.207 18H97.2578V20H101.207V18ZM98.2578 19V9.36719H96.2578V19H98.2578ZM97.2578 8.36719H94.8906V10.3672H97.2578V8.36719ZM93.8921 9.31289L93.6812 13.1918L95.6782 13.3004L95.8891 9.42149L93.8921 9.31289ZM93.6827 13.1691C93.5407 15.0067 93.1336 16.223 92.5805 16.9565L94.1773 18.1607C95.0617 16.9879 95.5218 15.3292 95.6767 13.3231L93.6827 13.1691ZM92.5805 16.9565C92.0854 17.6131 91.3411 17.9936 90.1742 18L90.1852 20C91.8464 19.9908 93.235 19.4104 94.1773 18.1607L92.5805 16.9565ZM90.1797 18H88.9375V20H90.1797V18ZM89.9374 18.9845L89.8905 15.9611L87.8907 15.9921L87.9376 19.0155L89.9374 18.9845ZM89.0042 16.9701L89.4143 16.9232L89.1872 14.9362L88.7771 14.983L89.0042 16.9701ZM89.4193 16.9226C90.4167 16.8036 91.0518 16.1128 91.391 15.2541L89.5309 14.5193C89.3701 14.9262 89.2318 14.9308 89.1822 14.9367L89.4193 16.9226ZM91.3886 15.2601C91.7088 14.4644 91.8796 13.3673 91.9516 12.0467L89.9546 11.9377C89.886 13.1952 89.7287 14.0277 89.5332 14.5134L91.3886 15.2601ZM91.9522 12.0355L92.1983 6.36366L90.2002 6.27696L89.9541 11.9488L91.9522 12.0355ZM91.1992 7.32031H101.207V5.32031H91.1992V7.32031ZM107.594 9.80078H106.594V10.8008H107.594V9.80078ZM113.863 17.7578L114.481 18.5443L114.482 18.5437L113.863 17.7578ZM103.621 19H102.621V20H103.621V19ZM103.621 6.32031V5.32031H102.621V6.32031H103.621ZM107.594 6.32031H108.594V5.32031H107.594V6.32031ZM107.594 12.8359V11.8359H106.594V12.8359H107.594ZM107.594 15.9766H106.594V16.9766H107.594V15.9766ZM111.004 15.5664L111.635 16.342L111.637 16.3404L111.004 15.5664ZM107.594 10.8008H109.621V8.80078H107.594V10.8008ZM109.621 10.8008C110.685 10.8008 111.577 10.9745 112.32 11.2937L113.11 9.45627C112.071 9.00988 110.901 8.80078 109.621 8.80078V10.8008ZM112.32 11.2937C113.06 11.6116 113.576 12.0393 113.922 12.5586L115.586 11.4492C114.995 10.5623 114.151 9.904 113.11 9.45627L112.32 11.2937ZM113.922 12.5586C114.27 13.0811 114.457 13.7003 114.457 14.4531H116.457C116.457 13.3466 116.175 12.3329 115.586 11.4492L113.922 12.5586ZM114.457 14.4531C114.457 15.5177 114.063 16.3281 113.245 16.9719L114.482 18.5437C115.788 17.5157 116.457 16.1229 116.457 14.4531H114.457ZM113.246 16.9713C112.422 17.6184 111.224 18 109.539 18V20C111.511 20 113.196 19.5534 114.481 18.5443L113.246 16.9713ZM109.539 18H103.621V20H109.539V18ZM104.621 19V6.32031H102.621V19H104.621ZM103.621 7.32031H107.594V5.32031H103.621V7.32031ZM106.594 6.32031V9.80078H108.594V6.32031H106.594ZM106.594 12.8359V15.9766H108.594V12.8359H106.594ZM107.594 16.9766H109.598V14.9766H107.594V16.9766ZM109.598 16.9766C110.341 16.9766 111.063 16.808 111.635 16.342L110.373 14.7908C110.273 14.8717 110.058 14.9766 109.598 14.9766V16.9766ZM111.637 16.3404C112.232 15.8539 112.52 15.1811 112.52 14.4297H110.52C110.52 14.6314 110.464 14.7164 110.371 14.7924L111.637 16.3404ZM112.52 14.4297C112.52 13.7215 112.279 13.0703 111.76 12.565L110.365 13.9975C110.455 14.086 110.52 14.2004 110.52 14.4297H112.52ZM111.76 12.565C111.186 12.0051 110.385 11.8359 109.598 11.8359V13.8359C110.154 13.8359 110.33 13.9637 110.365 13.9975L111.76 12.565ZM109.598 11.8359H107.594V13.8359H109.598V11.8359ZM123.578 15.7422L124.276 16.4585L124.285 16.4493L123.578 15.7422ZM124.023 14.4766V13.4766H123.009L123.024 14.4911L124.023 14.4766ZM127.727 14.4766H128.727V13.4766H127.727V14.4766ZM126.227 17.8984L125.561 17.1517L125.559 17.1543L126.227 17.8984ZM117.133 9.14453L116.233 8.70878L116.231 8.7118L117.133 9.14453ZM119.184 6.88281L119.69 7.74496L119.696 7.74163L119.184 6.88281ZM127.727 11.1719V12.1719H128.727V11.1719H127.727ZM124.023 11.1719H123.023V12.1719H124.023V11.1719ZM120.461 11.0898L121.452 11.2208L121.452 11.2205L120.461 11.0898ZM122.289 17.1875C123.022 17.1875 123.733 16.9875 124.276 16.4584L122.88 15.026C122.814 15.0906 122.665 15.1875 122.289 15.1875V17.1875ZM124.285 16.4493C124.827 15.908 125.034 15.1994 125.023 14.4621L123.024 14.4911C123.028 14.8319 122.939 14.967 122.871 15.0351L124.285 16.4493ZM124.023 15.4766H127.727V13.4766H124.023V15.4766ZM126.727 14.4766C126.727 15.5944 126.339 16.4589 125.561 17.1517L126.892 18.6452C128.114 17.5567 128.727 16.14 128.727 14.4766H126.727ZM125.559 17.1543C124.782 17.8516 123.753 18.2344 122.383 18.2344V20.2344C124.153 20.2344 125.687 19.7265 126.895 18.6426L125.559 17.1543ZM122.383 18.2344C120.766 18.2344 119.6 17.7374 118.76 16.8234L117.287 18.1766C118.572 19.5751 120.312 20.2344 122.383 20.2344V18.2344ZM118.76 16.8234C117.913 15.9021 117.43 14.5698 117.43 12.6953H115.43C115.43 14.9146 116.009 16.7854 117.287 18.1766L118.76 16.8234ZM117.43 12.6953V12.5312H115.43V12.6953H117.43ZM117.43 12.5312C117.43 11.3727 117.641 10.3963 118.034 9.57726L116.231 8.7118C115.687 9.84592 115.43 11.1273 115.43 12.5312H117.43ZM118.033 9.58028C118.429 8.76279 118.98 8.16223 119.69 7.74494L118.677 6.02068C117.606 6.65027 116.79 7.55752 116.233 8.70878L118.033 9.58028ZM119.696 7.74163C120.406 7.31787 121.277 7.08594 122.348 7.08594V5.08594C120.98 5.08594 119.742 5.38525 118.671 6.02399L119.696 7.74163ZM122.348 7.08594C123.805 7.08594 124.846 7.48473 125.587 8.18437L126.96 6.72969C125.764 5.60121 124.188 5.08594 122.348 5.08594V7.08594ZM125.587 8.18437C126.321 8.87664 126.727 9.83281 126.727 11.1719H128.727C128.727 9.38594 128.164 7.86554 126.96 6.72969L125.587 8.18437ZM127.727 10.1719H124.023V12.1719H127.727V10.1719ZM125.023 11.1719C125.023 10.3617 124.825 9.5824 124.282 8.98667L122.804 10.3336C122.902 10.441 123.023 10.6695 123.023 11.1719H125.023ZM124.282 8.98667C123.746 8.3983 123.033 8.13281 122.254 8.13281V10.1328C122.553 10.1328 122.699 10.2189 122.804 10.3336L124.282 8.98667ZM122.254 8.13281C121.51 8.13281 120.819 8.38053 120.301 8.94655C119.811 9.48132 119.57 10.1973 119.47 10.9592L121.452 11.2205C121.524 10.6777 121.668 10.4152 121.775 10.2976C121.855 10.2113 121.974 10.1328 122.254 10.1328V8.13281ZM119.47 10.9589C119.406 11.4367 119.379 12.0573 119.379 12.8008H121.379C121.379 12.0911 121.406 11.5711 121.452 11.2208L119.47 10.9589ZM119.379 12.8008C119.379 14.0857 119.52 15.2236 119.986 15.9756L121.686 14.9229C121.542 14.6904 121.379 14.0628 121.379 12.8008H119.379ZM119.986 15.9756C120.502 16.81 121.339 17.1875 122.289 17.1875V15.1875C121.911 15.1875 121.779 15.0728 121.686 14.9229L119.986 15.9756Z" fill="black"/>
</g>
<defs>
<filter id="filter0_d" x="0.265625" y="0.9375" width="132.461" height="32.1836" filterUnits="userSpaceOnUse" color-interpolation-filters="sRGB">
<feFlood flood-opacity="0" result="BackgroundImageFix"/>
<feColorMatrix in="SourceAlpha" type="matrix" values="0 0 0 0 0 0 0 0 0 0 0 0 0 0 0 0 0 0 127 0"/>
<feOffset dy="4"/>
<feGaussianBlur stdDeviation="2"/>
<feColorMatrix type="matrix" values="0 0 0 0 0 0 0 0 0 0 0 0 0 0 0 0 0 0 0.25 0"/>
<feBlend mode="normal" in2="BackgroundImageFix" result="effect1_dropShadow"/>
<feBlend mode="normal" in="SourceGraphic" in2="effect1_dropShadow" result="shape"/>
</filter>
</defs>
</svg>
